<svg viewBox="0 0 100 125" xmlns="http://www.w3.org/2000/svg"><path d="m31.696056 958.36029c-4.5477-.0001-9.103 1.72981-12.5625 5.18752-6.9186 6.9149-6.9198 18.1881 0 25.0937 4.6002 4.5968 10.3511 5.6481 15.4062 4.3438l39.1563 34.21869a2.0002 2.0002 0 0 0 .6563.375c1.9524.7118 3.9156.3021 5.5312-.6562 1.7158 2.2051 2.2595 4.3643 2.1562 6.3437-.1204 2.3179-1.2156 4.497-2.9062 6.1563s-3.9462 2.7343-6.1875 2.9062c-2.2376.1717-4.4612-.4648-6.5-2.4687 0 0 0-.029 0-.031l-23.2187-23.1875c-2.4213-2.4201-5.3235-3.5-8.0938-3.4688-.1847 0-.3793-.012-.5625 0-2.9304.1934-5.5918 1.5615-7.5937 3.5625-2.0022 2.0011-3.3689 4.6953-3.5626 7.625-.1934 2.9298.886 6.0749 3.4688 8.6563a2.0002 2.0002 0 1 0 2.8125-2.8438c-1.8652-1.8641-2.4334-3.7324-2.3125-5.5625s1.024-3.6495 2.4062-5.0312c1.3824-1.3817 3.1994-2.2854 5.0313-2.4063s3.7288.4484 5.5937 2.3125l23.2188 23.1875a2.0002 2.0002 0 0 0 0 .031c2.8159 2.7749 6.3337 3.8776 9.625 3.625 3.2913-.2525 6.3647-1.7827 8.6875-4.0625 2.3227-2.2797 3.9147-5.3733 4.0937-8.8125.1607-3.0838-.8774-6.3675-3.3437-9.375.8712-1.5698 1.2009-3.4937.4687-5.375a2.0002 2.0002 0 0 0 -.375-.5937c-12.1052-13.7555-22.1653-25.47059-34.2187-39.15629 1.2876-5.0605.2474-10.8258-4.3437-15.4062-3.4543-3.45681-7.9847-5.18746-12.5313-5.18752zm0 4c3.5157-.0001 7.0294 1.33852 9.7187 4.03122.086.086.1674.1637.25.25 0 .1138-.018.4037-.2187 1-.2574.764-.7618 1.8271-1.5 2.9688-1.4765 2.2833-3.8007 4.9861-6.3125 7.4687s-5.2315 4.7547-7.5312 6.2188c-1.1503.732-2.2017 1.2402-2.9688 1.5-.606.2053-.9077.2153-1 .2187-.065-.063-.1229-.1229-.1875-.1875-5.3882-5.3762-5.3902-14.0501 0-19.4375 2.6951-2.6936 6.2343-4.03116 9.75-4.03122zm15.2187 20.75002c1.4298 1.6256 2.8352 3.2324 4.2188 4.8125l-7.5938 7.5937-4.8124-4.1875c3.4474-1.8716 6.3216-4.7742 8.1874-8.2187zm6.875 7.8437c8.5861 9.82559 16.5543 19.05189 25.7188 29.46879.2013.853-.161 1.7754-.9375 2.5312-.7671.7468-1.7503 1.0879-2.5625.9375l-29.4375-25.71869z" fill-rule="evenodd" transform="translate(0 -952.36218)"/></svg>