<svg xmlns="http://www.w3.org/2000/svg" fill="none" viewBox="0 0 512 512">
  <path fill="currentcolor" fill-rule="evenodd" d="M435.2 0H76.8C34.385 0 0 34.385 0 76.8v358.4C0 477.615 34.385 512 76.8 512h358.4c42.415 0 76.8-34.385 76.8-76.8V76.8C512 34.385 477.615 0 435.2 0ZM145 402c19.33 0 35-15.67 35-35s-15.67-35-35-35-35 15.67-35 35 15.67 35 35 35Zm-36-245c135.431 0 246 110.568 246 246h60c0-168.568-137.431-306-306-306v60Zm0 114c72.431 0 132 59.568 132 132h60c0-105.568-86.431-192-192-192v60Z" clip-rule="evenodd"/>  </svg>
