<svg width="25" height="25" viewBox="0 0 25 25" fill="currentcolor" xmlns="http://www.w3.org/2000/svg">
<path d="M18.0522 1.13513C18.7085 0.541382 19.4116 0.385132 20.1616 0.666382C20.8804 0.947632 21.271 1.52576 21.3335 2.40076V20.7758C21.271 21.6508 20.8804 22.2289 20.1616 22.5101C19.4116 22.7914 18.7085 22.6351 18.0522 22.0414L16.9741 20.8695C14.8804 18.682 12.3335 17.3851 9.3335 16.9789V21.7133C9.30225 22.4633 9.05225 23.0883 8.5835 23.5883C8.0835 24.057 7.4585 24.307 6.7085 24.3383H5.9585C5.2085 24.307 4.5835 24.057 4.0835 23.5883C3.61475 23.0883 3.36475 22.4633 3.3335 21.7133V16.8383C2.48975 16.807 1.78662 16.5101 1.22412 15.9476C0.661621 15.3851 0.364746 14.6664 0.333496 13.7914V9.29138C0.364746 8.47888 0.661621 7.77576 1.22412 7.18201C1.78662 6.61951 2.48975 6.32263 3.3335 6.29138H7.0835L8.44287 6.24451C10.0679 6.15076 11.6147 5.77576 13.0835 5.11951C14.5522 4.43201 15.8491 3.49451 16.9741 2.30701L18.0522 1.13513ZM19.8335 2.40076C19.7397 1.99451 19.521 1.91638 19.1772 2.16638L18.0522 3.33826C16.0522 5.43201 13.646 6.80701 10.8335 7.46326V15.7601C13.646 16.3539 16.0522 17.7133 18.0522 19.8383L19.1772 21.0101C19.3022 21.1351 19.4429 21.1664 19.5991 21.1039C19.7554 21.0414 19.8335 20.932 19.8335 20.7758V2.40076ZM9.3335 15.4789V7.69763C9.05225 7.72888 8.78662 7.74451 8.53662 7.74451L7.0835 7.79138H3.3335C2.896 7.82263 2.53662 7.97888 2.25537 8.26013C1.97412 8.54138 1.8335 8.88513 1.8335 9.29138V13.7914C1.8335 14.2289 1.97412 14.5883 2.25537 14.8695C2.53662 15.1508 2.896 15.2914 3.3335 15.2914H7.0835L8.53662 15.432C8.72412 15.4008 8.91162 15.4008 9.09912 15.432C9.19287 15.4633 9.271 15.4789 9.3335 15.4789ZM4.8335 16.8383V21.7133C4.896 22.4008 5.271 22.7758 5.9585 22.8383H6.7085C7.396 22.7758 7.771 22.4008 7.8335 21.7133V16.8851L7.0835 16.8383H4.8335ZM23.5835 9.29138C24.0522 9.35388 24.3022 9.60388 24.3335 10.0414V13.0414C24.3022 13.5101 24.0522 13.7601 23.5835 13.7914C23.1147 13.7601 22.8647 13.5101 22.8335 13.0414V10.0414C22.8647 9.60388 23.1147 9.35388 23.5835 9.29138Z" fill="currentcolor"/>
</svg>
