<svg viewBox="0 0 22 24" xmlns="http://www.w3.org/2000/svg">
	<path fill="currentcolor" d="M9.41345,0.47253 C14.4289798,0.47253 18.49487,4.53842023 18.49487,9.55395 C18.49487,12.0451846 17.4917537,14.3021289 15.8674001,15.9429038 L21.392653,21.4668327 L19.271347,23.5881673 L13.3990455,17.7163323 C12.1958116,18.3049607 10.8432164,18.63537 9.41345,18.63537 C4.39792023,18.63537 0.33203,14.5694798 0.33203,9.55395 C0.33203,4.53842023 4.39792023,0.47253 9.41345,0.47253 Z M9.41345,3.47253 C6.05477448,3.47253 3.33203,6.19527448 3.33203,9.55395 C3.33203,12.9126255 6.05477448,15.63537 9.41345,15.63537 C12.7721255,15.63537 15.49487,12.9126255 15.49487,9.55395 C15.49487,6.19527448 12.7721255,3.47253 9.41345,3.47253 Z"></path>
</svg>