<?xml version="1.0" encoding="UTF-8"?>
<svg width="86px" height="86px" viewBox="0 0 86 86" version="1.1" xmlns="http://www.w3.org/2000/svg" xmlns:xlink="http://www.w3.org/1999/xlink">
    <!-- Generator: Sketch 52.2 (67145) - http://www.bohemiancoding.com/sketch -->
    <title>external-link-icon</title>
    <desc>Created with Sketch.</desc>
    <g id="Page-1" stroke="none" stroke-width="1" fill="none" fill-rule="evenodd">
        <g id="external-link-icon" transform="translate(2.000000, 2.000000)" fill="#000000" stroke="#000000" stroke-width="5">
            <g id="Group">
                <path d="M74.3,70.7 C74.3,72.7 72.7,74.3 70.7,74.3 L11.3,74.3 C9.3,74.3 7.7,72.7 7.7,70.7 L7.7,11.3 C7.7,9.3 9.3,7.7 11.3,7.7 L34.7,7.7 L34.7,0.5 L11.3,0.5 C5.3,0.5 0.5,5.3 0.5,11.3 L0.5,70.7 C0.5,76.7 5.3,81.5 11.3,81.5 L70.7,81.5 C76.7,81.5 81.5,76.7 81.5,70.7 L81.5,47.3 L74.3,47.3 L74.3,70.7 Z" id="Path"></path>
                <polygon id="Path" points="48.9847291 0.5 48.9847291 7.3453202 69.8059113 7.3453202 42.9 34.2512315 47.7487685 39.1 74.6546798 12.1940887 74.6546798 33.0152709 81.5 33.0152709 81.5 0.5"></polygon>
            </g>
        </g>
    </g>
</svg>