<svg height="480" viewBox="0 0 640 480" width="640" xmlns="http://www.w3.org/2000/svg" xmlns:xlink="http://www.w3.org/1999/xlink"><clipPath id="a"><path d="m0 0h682.67v512h-682.67z"/></clipPath><g clip-path="url(#a)" fill-rule="evenodd" transform="scale(.9375)"><path d="m0 .084h767.87v511.92h-767.87z" fill="#fff"/><path d="m0 0h232.74v232.75h-232.74z" fill="#006"/><path d="m0 464.87h767.89v47.127h-767.89z" fill="#c00"/><path d="m0 465.43h767.89v46.574h-767.89zm0-92.91h767.89v46.21h-767.89zm0-93.26h765.96v46.7h-765.96zm232.67-279.205h535.17v46.494h-535.17zm0 186.005h535.17v46.796h-535.17zm0-92.699h535.17v46.494h-535.17z" fill="#c00"/><path d="m166.35 177.47-50.71-30.98-50.465 31.29 18.769-50.85-50.373-31.394 62.321-.438 19.328-50.691 19.744 50.574 62.321.067-50.115 31.693 19.184 50.732z" fill="#fff"/></g></svg>