<svg height="480" viewBox="0 0 640 480" width="640" xmlns="http://www.w3.org/2000/svg"><g fill-rule="evenodd" transform="scale(.9375)"><g stroke-width="1pt"><path d="m0 0h972.81v39.385h-972.81zm0 78.77h972.81v39.385h-972.81zm0 78.77h972.81v39.385h-972.81zm0 78.77h972.81v39.385h-972.81zm0 78.77h972.81v39.385h-972.81zm0 78.77h972.81v39.385h-972.81zm0 78.77h972.81v39.385h-972.81z" fill="#bd3d44"/><path d="m0 39.385h972.81v39.385h-972.81zm0 78.77h972.81v39.385h-972.81zm0 78.77h972.81v39.385h-972.81zm0 78.77h972.81v39.385h-972.81zm0 78.77h972.81v39.385h-972.81zm0 78.77h972.81v39.385h-972.81z" fill="#fff"/></g><path d="m0 0h389.12v275.69h-389.12z" fill="#192f5d"/><g fill="#fff"><path d="m32.427 11.8 3.54 10.896h11.458l-9.27 6.735 3.541 10.896-9.27-6.734-9.268 6.734 3.54-10.896-9.269-6.735h11.457zm64.853 0 3.541 10.896h11.458l-9.27 6.735 3.541 10.896-9.27-6.734-9.268 6.734 3.54-10.896-9.269-6.735h11.457zm64.856 0 3.54 10.896h11.458l-9.27 6.735 3.541 10.896-9.269-6.734-9.269 6.734 3.54-10.896-9.269-6.735h11.458zm64.852 0 3.54 10.896h11.457l-9.269 6.735 3.54 10.896-9.268-6.734-9.27 6.734 3.541-10.896-9.27-6.735h11.458zm64.855 0 3.54 10.896h11.458l-9.27 6.735 3.541 10.896-9.27-6.734-9.268 6.734 3.54-10.896-9.269-6.735h11.457zm64.855 0 3.54 10.896h11.458l-9.27 6.735 3.541 10.896-9.269-6.734-9.27 6.734 3.542-10.896-9.27-6.735h11.458zm-291.843 27.57 3.54 10.896h11.458l-9.27 6.734 3.542 10.897-9.27-6.734-9.269 6.734 3.54-10.897-9.269-6.734h11.458zm64.852 0 3.54 10.896h11.457l-9.269 6.734 3.54 10.897-9.268-6.734-9.27 6.734 3.541-10.897-9.27-6.734h11.458zm64.855 0 3.54 10.896h11.458l-9.27 6.734 3.541 10.897-9.27-6.734-9.268 6.734 3.54-10.897-9.269-6.734h11.457zm64.855 0 3.54 10.896h11.458l-9.27 6.734 3.541 10.897-9.269-6.734-9.27 6.734 3.543-10.897-9.27-6.734h11.458zm64.852 0 3.54 10.896h11.457l-9.269 6.734 3.54 10.897-9.268-6.734-9.27 6.734 3.541-10.897-9.27-6.734h11.458zm-291.842 27.569 3.54 10.896h11.458l-9.27 6.735 3.541 10.896-9.27-6.734-9.268 6.734 3.54-10.896-9.269-6.735h11.457zm64.853 0 3.541 10.896h11.458l-9.27 6.735 3.541 10.896-9.27-6.734-9.268 6.734 3.54-10.896-9.269-6.735h11.457zm64.856 0 3.54 10.896h11.458l-9.27 6.735 3.541 10.896-9.269-6.734-9.269 6.734 3.54-10.896-9.269-6.735h11.458zm64.852 0 3.54 10.896h11.457l-9.269 6.735 3.54 10.896-9.268-6.734-9.27 6.734 3.541-10.896-9.27-6.735h11.458zm64.855 0 3.54 10.896h11.458l-9.27 6.735 3.541 10.896-9.27-6.734-9.268 6.734 3.54-10.896-9.269-6.735h11.457zm64.855 0 3.54 10.896h11.458l-9.27 6.735 3.541 10.896-9.269-6.734-9.27 6.734 3.542-10.896-9.27-6.735h11.458zm-291.843 27.569 3.54 10.897h11.458l-9.27 6.734 3.542 10.897-9.27-6.734-9.269 6.734 3.54-10.897-9.269-6.734h11.458zm64.852 0 3.54 10.897h11.457l-9.269 6.734 3.54 10.897-9.268-6.734-9.27 6.734 3.541-10.897-9.27-6.734h11.458zm64.855 0 3.54 10.897h11.458l-9.27 6.734 3.541 10.897-9.27-6.734-9.268 6.734 3.54-10.897-9.269-6.734h11.457zm64.855 0 3.54 10.897h11.458l-9.27 6.734 3.541 10.897-9.269-6.734-9.27 6.734 3.542-10.897-9.27-6.734h11.458zm64.852 0 3.54 10.897h11.457l-9.269 6.734 3.54 10.897-9.268-6.734-9.27 6.734 3.541-10.897-9.27-6.734h11.458zm-291.842 27.57 3.54 10.896h11.458l-9.27 6.735 3.541 10.896-9.27-6.734-9.268 6.734 3.54-10.896-9.269-6.735h11.457zm64.853 0 3.541 10.896h11.458l-9.27 6.735 3.541 10.896-9.27-6.734-9.268 6.734 3.54-10.896-9.269-6.735h11.457zm64.856 0 3.54 10.896h11.458l-9.27 6.735 3.541 10.896-9.269-6.734-9.269 6.734 3.54-10.896-9.269-6.735h11.458zm64.852 0 3.54 10.896h11.457l-9.269 6.735 3.54 10.896-9.268-6.734-9.27 6.734 3.541-10.896-9.27-6.735h11.458zm64.855 0 3.54 10.896h11.458l-9.27 6.735 3.541 10.896-9.27-6.734-9.268 6.734 3.54-10.896-9.269-6.735h11.457zm64.855 0 3.54 10.896h11.458l-9.27 6.735 3.541 10.896-9.269-6.734-9.27 6.734 3.542-10.896-9.27-6.735h11.458zm-291.843 27.569 3.54 10.897h11.458l-9.27 6.734 3.542 10.897-9.27-6.734-9.269 6.734 3.54-10.897-9.269-6.734h11.458zm64.852 0 3.54 10.897h11.457l-9.269 6.734 3.54 10.897-9.268-6.734-9.27 6.734 3.541-10.897-9.27-6.734h11.458zm64.855 0 3.54 10.897h11.458l-9.27 6.734 3.541 10.897-9.27-6.734-9.268 6.734 3.54-10.897-9.269-6.734h11.457zm64.855 0 3.54 10.897h11.458l-9.27 6.734 3.541 10.897-9.269-6.734-9.27 6.734 3.542-10.897-9.27-6.734h11.458zm64.852 0 3.54 10.897h11.457l-9.269 6.734 3.54 10.897-9.268-6.734-9.27 6.734 3.541-10.897-9.27-6.734h11.458z"/><path d="m32.427 177.217 3.54 10.896h11.458l-9.27 6.735 3.541 10.896-9.27-6.734-9.268 6.734 3.54-10.896-9.269-6.735h11.457zm64.853 0 3.541 10.896h11.458l-9.27 6.735 3.541 10.896-9.27-6.734-9.268 6.734 3.54-10.896-9.269-6.735h11.457zm64.856 0 3.54 10.896h11.458l-9.27 6.735 3.541 10.896-9.269-6.734-9.269 6.734 3.54-10.896-9.269-6.735h11.458zm64.852 0 3.54 10.896h11.457l-9.269 6.735 3.54 10.896-9.268-6.734-9.27 6.734 3.541-10.896-9.27-6.735h11.458zm64.855 0 3.54 10.896h11.458l-9.27 6.735 3.541 10.896-9.27-6.734-9.268 6.734 3.54-10.896-9.269-6.735h11.457zm64.855 0 3.54 10.896h11.458l-9.27 6.735 3.541 10.896-9.269-6.734-9.27 6.734 3.542-10.896-9.27-6.735h11.458zm-291.843 27.569 3.54 10.897h11.458l-9.27 6.734 3.542 10.897-9.27-6.734-9.269 6.734 3.54-10.897-9.269-6.734h11.458zm64.852 0 3.54 10.897h11.457l-9.269 6.734 3.54 10.897-9.268-6.734-9.27 6.734 3.541-10.897-9.27-6.734h11.458zm64.855 0 3.54 10.897h11.458l-9.27 6.734 3.541 10.897-9.27-6.734-9.268 6.734 3.54-10.897-9.269-6.734h11.457zm64.855 0 3.54 10.897h11.458l-9.27 6.734 3.541 10.897-9.269-6.734-9.27 6.734 3.542-10.897-9.27-6.734h11.458zm64.852 0 3.54 10.897h11.457l-9.269 6.734 3.54 10.897-9.268-6.734-9.27 6.734 3.541-10.897-9.27-6.734h11.458z"/><path d="m32.427 232.356 3.54 10.896h11.458l-9.27 6.735 3.541 10.896-9.27-6.734-9.268 6.734 3.54-10.896-9.269-6.735h11.457zm64.853 0 3.541 10.896h11.458l-9.27 6.735 3.541 10.896-9.27-6.734-9.268 6.734 3.54-10.896-9.269-6.735h11.457zm64.856 0 3.54 10.896h11.458l-9.27 6.735 3.541 10.896-9.269-6.734-9.269 6.734 3.54-10.896-9.269-6.735h11.458zm64.852 0 3.54 10.896h11.457l-9.269 6.735 3.54 10.896-9.268-6.734-9.27 6.734 3.541-10.896-9.27-6.735h11.458zm64.855 0 3.54 10.896h11.458l-9.27 6.735 3.541 10.896-9.27-6.734-9.268 6.734 3.54-10.896-9.269-6.735h11.457zm64.855 0 3.54 10.896h11.458l-9.27 6.735 3.541 10.896-9.269-6.734-9.27 6.734 3.542-10.896-9.27-6.735h11.458z"/></g></g></svg>